# xmcd
#
# Track frame offsets:
#	150
#	25750
#	51047
#	67087
#	96425
#	112310
#	146112
#	171990
#	186685
#	215050
#	230972
#	245972
#	258300
#	277087
#	299162
#
# Disc length: 4187 seconds
#
# Revision: 0
# Processed by: cddbd v1.5.1PL2 Copyright (c) Steve Scherf et al.
# Submitted via: audiograbber 1.83.01
#
DISCID=1210590f
DTITLE=Various Artist - Blue Jean Blues - Vol. 18
DYEAR=1900
DGENRE=Blues
TTITLE0=jeff healey band - Blue Jean Blues
TTITLE1=johnny diesel - Since I Fell For You
TTITLE2=rocky hill - Mississippi Delta Blues
TTITLE3=ruby turner - I'd Rather Go Blind
TTITLE4=george thorogood - Woman With The Blues
TTITLE5=ten years after - Slow Blues In C
TTITLE6=livin' blues - I Wonder
TTITLE7=steve miller band - Caress Me Baby
TTITLE8=jo-el sonnier - I've Slipped Her Mind
TTITLE9=bonnie raitt - The Road's My Middle Name
TTITLE10=frankie miller - With You In My Mind
TTITLE11=jethro tull - Some Day The Sun Won't Shine For You
TTITLE12=brainbox - Woman's Gone
TTITLE13=canned heat - Sneakin' Around
TTITLE14=jeff beck - I've Been Drinking
EXTD=
EXTT0=Jeff Healey Band
EXTT1=Johnny Diesel and the Injectors
EXTT2=Rocky Hill
EXTT3=Ruby Turner
EXTT4=George Thorogood and The Destroyers
EXTT5=Ten Years After
EXTT6=Livin' Blues
EXTT7=Steve Miller Band
EXTT8=Jo-El Sonnier
EXTT9=Bonnie Raitt
EXTT10=Frankie Miller
EXTT11=Jethro Tull
EXTT12=Brainbox
EXTT13=Canned Heat
EXTT14=Jeff Beck (with Rod Stewart)
PLAYORDER=
